#N canvas 0 50 614 428 10;
#X obj 210 116 osc~ 440;
#X obj 217 171 8_ch_circle_panner~;
#X obj 223 246 dac~ 1 2 3 4 5 6 7 8;
#X obj 305 67 hsl 128 15 0 360 0 0 empty empty empty -2 -8 0 10 -262144
-1 -1 0 1;
#X connect 0 0 1 0;
#X connect 1 0 2 0;
#X connect 1 1 2 1;
#X connect 1 2 2 2;
#X connect 1 3 2 3;
#X connect 1 4 2 4;
#X connect 1 5 2 5;
#X connect 1 6 2 6;
#X connect 1 7 2 7;
#X connect 3 0 1 1;
